<svg width="32" height="32" viewBox="0 0 32 32" fill="none" xmlns="http://www.w3.org/2000/svg">
<g id="Cosmos (ATOM)">
<circle id="Cosmos (ATOM)_2" cx="16" cy="16" r="16" fill="#2E3148"/>
<circle id="Cosmos (ATOM)_3" cx="15.9998" cy="16" r="9.28397" fill="#1B1E36"/>
<path id="Cosmos (ATOM)_4" fill-rule="evenodd" clip-rule="evenodd" d="M12.9053 16.033C12.9053 8.30552 14.3057 2.0412 16.0328 2.0412C17.7599 2.0412 19.1604 8.30552 19.1604 16.033C19.1604 23.7605 17.7599 30.0248 16.0328 30.0248C14.3057 30.0248 12.9053 23.7605 12.9053 16.033ZM15.8538 29.301C15.8538 29.301 16.0513 29.4986 16.2488 29.2352C16.2488 29.2352 17.1765 28.4444 17.8389 24.6915C17.8389 24.6915 18.6995 19.7532 18.5678 15.3417C18.5678 15.3417 18.6995 10.2717 17.245 4.87258C17.245 4.87258 16.7525 3.13229 16.1652 2.71616C16.0674 2.64663 15.9338 2.65743 15.8485 2.74176C15.4438 3.14202 14.2544 4.9449 13.6006 12.5768C13.6006 12.5768 13.2695 22.19 14.6607 26.6673C14.6607 26.6673 15.0584 28.3794 15.8538 29.301Z" fill="#6F7390"/>
<path id="Cosmos (ATOM)_5" fill-rule="evenodd" clip-rule="evenodd" d="M14.4733 13.3195C21.1794 9.47416 27.3094 7.57132 28.1693 9.06994C29.0286 10.5679 24.2982 14.9003 17.5922 18.7457C10.8861 22.5911 4.75545 24.4933 3.89618 22.9953C3.03692 21.4973 7.76729 17.1649 14.4733 13.3195ZM4.43455 22.4777C4.43455 22.4777 4.36018 22.7483 4.68939 22.7898H4.68952C4.68952 22.7898 5.83653 23.2013 9.42168 21.9094C9.42168 21.9094 14.1334 20.1994 17.8944 17.889C17.8944 17.889 22.3579 15.4798 26.3146 11.5299C26.3146 11.5299 27.5822 10.2371 27.648 9.52026C27.6605 9.4005 27.5848 9.2892 27.4688 9.25683C26.9216 9.10618 24.7645 8.96986 17.82 12.2008C17.82 12.2008 9.31621 16.6973 6.12351 20.1324C6.12351 20.1324 4.83839 21.3294 4.43455 22.4777Z" fill="#6F7390"/>
<path id="Cosmos (ATOM)_6" fill-rule="evenodd" clip-rule="evenodd" d="M17.6047 13.324C24.2872 17.1983 29.0057 21.5506 28.1391 23.0452C27.2733 24.5426 21.1517 22.616 14.4654 18.7417C7.77905 14.8674 3.06136 10.5177 3.92715 9.02052C4.79294 7.52331 10.9222 9.44971 17.6047 13.324ZM4.6433 9.22151C4.6433 9.22151 4.37309 9.2946 4.50109 9.59809L4.50198 9.60142C4.50198 9.60142 4.72112 10.7991 7.63798 13.255C7.63798 13.255 11.4767 16.4768 15.3588 18.5706C15.3588 18.5706 19.6795 21.2247 25.082 22.6733C25.082 22.6733 26.8348 23.1198 27.4892 22.8201C27.5987 22.7705 27.6565 22.6493 27.6262 22.533C27.482 21.9839 26.5194 20.0494 20.2432 15.6576C20.2432 15.6576 12.0915 10.5514 7.51997 9.51041C7.51997 9.51041 5.83958 8.99559 4.6433 9.22151Z" fill="#6F7390"/>
<circle id="Cosmos (ATOM)_7" cx="16.0001" cy="16" r="1.64608" fill="#B7B9C8"/>
<ellipse id="Cosmos (ATOM)_8" cx="22.7487" cy="9.67899" rx="0.954752" ry="0.987648" fill="#B7B9C8"/>
<ellipse id="Cosmos (ATOM)_9" cx="7.07829" cy="13.0371" rx="0.954752" ry="0.987648" fill="#B7B9C8"/>
<ellipse id="Cosmos (ATOM)_10" cx="14.0578" cy="25.1523" rx="0.954752" ry="0.987648" fill="#B7B9C8"/>
</g>
</svg>
