<svg width="32" height="32" viewBox="0 0 32 32" fill="none" xmlns="http://www.w3.org/2000/svg">
<path d="M31.5216 19.8705C29.3847 28.442 20.7031 33.6584 12.1306 31.521C3.56168 29.3841 -1.65477 20.702 0.483083 12.1312C2.61906 3.5587 11.3006 -1.65814 19.8705 0.478775C28.4424 2.61569 33.6585 11.2987 31.5214 19.8706L31.5215 19.8705H31.5216Z" fill="#F7931A"/>
<path fill-rule="evenodd" clip-rule="evenodd" d="M23.0573 13.7203C23.3758 11.5911 21.7547 10.4465 19.538 9.68299L20.2571 6.79873L18.5014 6.36125L17.8014 9.16956C17.3398 9.05444 16.8658 8.94597 16.3947 8.83844L17.0998 6.01158L15.3451 5.5741L14.6256 8.45742C14.2437 8.37045 13.8685 8.2845 13.5046 8.19394L13.5066 8.18487L11.0854 7.58025L10.6183 9.45549C10.6183 9.45549 11.9209 9.75408 11.8935 9.77246C12.6045 9.94991 12.733 10.4206 12.7117 10.7936L11.8926 14.0794C11.9415 14.0919 12.005 14.1099 12.0751 14.138L12.0241 14.1253C11.9808 14.1145 11.9357 14.1032 11.8895 14.0921L10.7414 18.6951C10.6545 18.9111 10.4339 19.2353 9.93685 19.1122C9.95444 19.1377 8.66075 18.7937 8.66075 18.7937L7.78906 20.8035L10.0739 21.3731C10.3241 21.4358 10.5713 21.5003 10.8161 21.5641C10.9871 21.6087 11.1569 21.6529 11.3256 21.6961L10.5991 24.6134L12.3528 25.0509L13.0723 22.1645C13.5514 22.2946 14.0163 22.4145 14.4715 22.5276L13.7544 25.4004L15.5102 25.8379L16.2367 22.926C19.2306 23.4926 21.4818 23.2642 22.4293 20.5562C23.1929 18.376 22.3913 17.1184 20.8162 16.2983C21.9634 16.0338 22.8276 15.2792 23.0579 13.7206L23.0574 13.7202L23.0573 13.7203ZM19.0461 19.3454C18.5483 21.3457 15.4173 20.5187 13.9847 20.1404C13.8559 20.1063 13.7408 20.0759 13.6425 20.0515L14.6067 16.1866C14.7264 16.2165 14.8727 16.2493 15.0384 16.2865C16.5202 16.619 19.5562 17.3004 19.0462 19.3454H19.0461ZM15.3351 14.4927C16.5295 14.8114 19.1349 15.5067 19.5886 13.6887H19.5888C20.0521 11.8293 17.5201 11.2687 16.2835 10.995C16.1443 10.9642 16.0216 10.937 15.9214 10.912L15.0473 14.4173C15.1298 14.4379 15.2266 14.4637 15.3351 14.4927Z" fill="white"/>
</svg>
