<svg width="32" height="32" viewBox="0 0 32 32" fill="none" xmlns="http://www.w3.org/2000/svg">
<ellipse cx="16" cy="16" rx="16" ry="16" fill="#EDF0F4"/>
<path d="M16.0688 5.33337C11.62 5.35124 8.01787 8.95337 8 13.4022C8 14.2932 8.14381 15.1782 8.42548 16.0232C8.63567 16.5984 9.25942 16.9082 9.84489 16.7303C10.4108 16.5133 10.7112 15.8947 10.5308 15.316C10.2916 14.6574 10.1853 13.9587 10.2168 13.2592C10.3138 10.046 12.9969 7.5195 16.2101 7.61651C19.4233 7.71352 21.9498 10.3966 21.8528 13.6098C21.7618 16.618 19.3927 19.0611 16.3879 19.2441C16.3879 19.2441 15.2553 19.313 14.692 19.3819C14.4843 19.4117 14.2784 19.4526 14.075 19.5045C14.0461 19.5342 13.9993 19.5342 13.9695 19.5053L13.9687 19.5045C13.9482 19.4781 13.9482 19.4406 13.9687 19.4143L14.144 18.4578L15.2077 13.6737C15.3353 13.0763 14.9549 12.4883 14.3575 12.3606C13.7602 12.233 13.1722 12.6134 13.0445 13.2107C13.0445 13.2107 10.5146 24.9208 10.5146 25.0272C10.3699 25.5965 10.7137 26.1752 11.283 26.3198C11.289 26.3215 11.2958 26.3232 11.3017 26.3241H11.3605C11.9289 26.4713 12.5093 26.1292 12.6556 25.5608C12.6582 25.5514 12.6607 25.542 12.6624 25.5318C12.6607 25.514 12.6607 25.4961 12.6624 25.4791C12.6939 25.3412 13.013 23.7831 13.013 23.7831C13.2547 22.6071 14.2027 21.7059 15.3889 21.5238C15.6331 21.4864 16.6594 21.4174 16.6594 21.4174C21.0912 20.9758 24.3257 17.0248 23.8832 12.5929C23.4799 8.55087 20.1313 5.43889 16.0688 5.33337Z" fill="#1E1E1E"/>
<path d="M16.5583 23.9379C15.8307 23.7865 15.1193 24.2536 14.9679 24.9804C14.9662 24.9872 14.9653 24.994 14.9636 25.0008C14.8062 25.7233 15.264 26.4372 15.9873 26.5946C15.9882 26.5946 15.989 26.5946 15.9899 26.5955H16.0273C16.7353 26.7665 17.4476 26.3308 17.6178 25.6237C17.6195 25.6186 17.6203 25.6126 17.622 25.6075V25.5335C17.7471 24.8034 17.2808 24.103 16.5583 23.9379Z" fill="#E6007A"/>
</svg>
