<svg width="32" height="32" viewBox="0 0 32 32" fill="none" xmlns="http://www.w3.org/2000/svg">
<circle cx="15.9995" cy="16" r="16" fill="#ED4E33"/>
<path d="M13.4981 9.03119C9.39634 10.6285 9.02059 14.7192 7.84446 16.6296C6.6544 18.5627 3.92801 19.6293 4.30083 20.6145C4.67365 21.5995 7.40328 20.5415 9.56282 21.1701C11.6968 21.7912 14.6742 24.5763 18.7759 22.979C20.8655 22.1654 22.3785 20.4907 23.0743 18.5069C23.1491 18.2939 23.0092 18.0662 22.7872 18.0452C22.6493 18.032 22.5168 18.1053 22.4547 18.2308C21.8253 19.5024 20.7456 20.5497 19.3328 21.0998C17.0002 22.0081 14.448 21.295 12.8807 19.5064C12.5247 19.1003 12.2202 18.638 11.9799 18.127C11.9138 17.9864 11.851 17.8434 11.7952 17.6956C11.7392 17.5477 11.6916 17.3988 11.6479 17.2493C12.8807 16.6664 14.3033 16.049 15.9162 15.421C17.4974 14.8052 18.9367 14.3058 20.2179 13.9062C21.0848 13.6361 21.8794 13.4113 22.5968 13.2277C22.6487 13.2145 22.6998 13.2014 22.7507 13.1886C22.8592 13.1613 22.9706 13.2201 23.0107 13.3259L23.0115 13.3279C23.0351 13.3906 23.0555 13.4537 23.0776 13.5168C23.2194 13.924 23.3257 14.3354 23.3959 14.7477C23.4267 14.9281 23.621 15.0264 23.7804 14.9396C24.3694 14.6189 24.908 14.3061 25.3893 14.0051C27.1829 12.8846 28.1772 11.9343 27.9731 11.3957C27.7694 10.8569 26.4038 10.826 24.3316 11.2104C23.6731 11.3327 22.9431 11.497 22.1564 11.7004C22.0203 11.7355 21.8825 11.772 21.7433 11.8094C21.0812 11.9875 20.3829 12.1916 19.6557 12.42C18.3034 12.8448 16.8525 13.3538 15.3547 13.9371C13.9535 14.4829 12.6254 15.0487 11.4075 15.6126C11.3926 13.2195 12.8188 10.9571 15.1513 10.0488C16.5638 9.49877 18.0572 9.5438 19.3639 10.062C19.4927 10.1132 19.6395 10.0778 19.7338 9.97425C19.8846 9.8083 19.8384 9.54412 19.6423 9.43634C17.8169 8.43511 15.5877 8.21758 13.4981 9.03119Z" fill="white"/>
</svg>
