<svg width="32" height="32" viewBox="0 0 32 32" fill="none" xmlns="http://www.w3.org/2000/svg">
<g clip-path="url(#clip0_1077_432)">
<path d="M31.5216 19.8705C29.3847 28.442 20.7031 33.6584 12.1306 31.521C3.56168 29.3841 -1.65477 20.702 0.483083 12.1312C2.61906 3.5587 11.3006 -1.65814 19.8705 0.478775C28.4424 2.61569 33.6585 11.2987 31.5214 19.8706L31.5215 19.8705H31.5216Z" fill="white"/>
<path d="M6.90982 8.14813C7.05886 7.96081 7.21678 7.78057 7.3747 7.60033C7.38178 7.59139 7.3978 7.58959 7.40488 7.58065C7.4191 7.56283 7.4422 7.55209 7.45636 7.53421L7.47058 7.51639C7.58068 7.41463 7.6978 7.30387 7.83286 7.20739C8.3107 6.84463 8.8066 6.56905 9.3295 6.38773C11.0067 5.79889 12.8736 6.16177 14.3377 7.54393C16.382 9.46015 16.1989 12.5471 14.567 14.5988C12.5049 17.6575 8.96104 21.9249 13.8678 25.7476C14.75 26.435 15.4045 27.0017 18.1835 27.8048C16.366 28.1396 14.6807 28.0354 12.8049 27.5563C11.478 26.8074 9.39196 25.2038 8.68222 23.038C7.60954 19.7537 10.5708 14.8439 12.0019 12.953C13.9668 10.336 10.7874 7.50295 8.44672 10.6657C7.2232 12.314 5.08264 16.9782 5.82652 20.4379C6.26146 22.3999 6.84118 23.83 9.13978 25.7945C8.71354 25.543 8.2996 25.2577 7.89808 24.9385C2.55742 19.9636 3.17703 12.2716 6.90982 8.14813Z" fill="url(#paint0_linear_1077_432)"/>
<path d="M25.0901 23.8519C24.9411 24.0392 24.7831 24.2195 24.6252 24.3997C24.6181 24.4086 24.6021 24.4104 24.595 24.4194C24.5808 24.4372 24.5577 24.4479 24.5436 24.4658L24.5293 24.4836C24.4192 24.5854 24.3021 24.6962 24.1671 24.7926C23.6892 25.1554 23.1933 25.431 22.6704 25.6123C20.9932 26.2011 19.1263 25.8383 17.6622 24.4561C15.618 22.5399 15.801 19.4529 17.4329 17.4012C19.495 14.3425 23.0389 10.0751 18.1321 6.2524C17.2499 5.56504 16.5954 4.99834 13.8164 4.19524C15.6339 3.86042 17.3192 3.96457 19.195 4.4437C20.5219 5.19262 22.608 6.79618 23.3177 8.962C24.3904 12.2463 21.4291 17.1561 19.998 19.047C18.0331 21.6641 21.2125 24.4971 23.5532 21.3343C24.7767 19.686 26.9173 15.0218 26.1734 11.5621C25.7385 9.60016 25.1587 8.17006 22.8601 6.20554C23.2864 6.45706 23.7003 6.74236 24.1018 7.06156C29.4425 12.0364 28.8229 19.7285 25.0901 23.8519Z" fill="url(#paint1_linear_1077_432)"/>
</g>
<defs>
<linearGradient id="paint0_linear_1077_432" x1="4" y1="16" x2="28" y2="16" gradientUnits="userSpaceOnUse">
<stop stop-color="#0082FA"/>
<stop offset="1" stop-color="#00F2FE"/>
</linearGradient>
<linearGradient id="paint1_linear_1077_432" x1="3.99993" y1="16" x2="27.9999" y2="16" gradientUnits="userSpaceOnUse">
<stop stop-color="#0082FA"/>
<stop offset="1" stop-color="#00F2FE"/>
</linearGradient>
<clipPath id="clip0_1077_432">
<rect width="32" height="32" fill="white"/>
</clipPath>
</defs>
</svg>
