<svg width="32" height="32" viewBox="0 0 32 32" fill="none" xmlns="http://www.w3.org/2000/svg">
<ellipse cx="16" cy="16" rx="16" ry="16" fill="#09090D"/>
<path d="M9.91844 19.7905C10.0293 19.6797 10.1818 19.615 10.3435 19.615H25.0068C25.2747 19.615 25.4087 19.9384 25.2193 20.1278L22.3227 23.0244C22.2118 23.1353 22.0593 23.2 21.8977 23.2H7.23433C6.96638 23.2 6.8324 22.8766 7.02181 22.6872L9.91844 19.7905Z" fill="url(#paint0_linear_244_3140)"/>
<path d="M9.91844 8.97548C10.0339 8.8646 10.1864 8.79993 10.3435 8.79993H25.0068C25.2747 8.79993 25.4087 9.12331 25.2193 9.31273L22.3227 12.2094C22.2118 12.3202 22.0593 12.3849 21.8977 12.3849H7.23433C6.96638 12.3849 6.8324 12.0615 7.02181 11.8721L9.91844 8.97548Z" fill="url(#paint1_linear_244_3140)"/>
<path d="M22.3227 14.3484C22.2118 14.2375 22.0593 14.1729 21.8977 14.1729H7.23433C6.96638 14.1729 6.8324 14.4962 7.02181 14.6857L9.91844 17.5823C10.0293 17.6932 10.1818 17.7578 10.3435 17.7578H25.0068C25.2747 17.7578 25.4087 17.4344 25.2193 17.245L22.3227 14.3484Z" fill="url(#paint2_linear_244_3140)"/>
<defs>
<linearGradient id="paint0_linear_244_3140" x1="-26.2086" y1="6.07964" x2="-26.5987" y2="25.7114" gradientUnits="userSpaceOnUse">
<stop stop-color="#00FFA3"/>
<stop offset="1" stop-color="#DC1FFF"/>
</linearGradient>
<linearGradient id="paint1_linear_244_3140" x1="-30.6459" y1="3.76293" x2="-31.036" y2="23.3947" gradientUnits="userSpaceOnUse">
<stop stop-color="#00FFA3"/>
<stop offset="1" stop-color="#DC1FFF"/>
</linearGradient>
<linearGradient id="paint2_linear_244_3140" x1="-28.4414" y1="4.91395" x2="-28.8315" y2="24.5457" gradientUnits="userSpaceOnUse">
<stop stop-color="#00FFA3"/>
<stop offset="1" stop-color="#DC1FFF"/>
</linearGradient>
</defs>
</svg>
