<svg width="32" height="32" viewBox="0 0 32 32" fill="none" xmlns="http://www.w3.org/2000/svg">
<path d="M32 16C32 24.8366 24.8366 32 16 32C7.16345 32 0 24.8366 0 16C0 7.16345 7.16345 0 16 0C24.8366 0 32 7.16345 32 16Z" fill="#E50571"/>
<path d="M8.81251 17.9563C8.4533 17.597 8.21239 17.1821 8.0898 16.7116C7.97007 16.2383 7.97007 15.7649 8.0898 15.2916C8.21239 14.8154 8.45187 14.3991 8.80823 14.0427C9.17029 13.6805 9.58796 13.4396 10.0612 13.3198C10.5345 13.2 11.0077 13.2 11.4809 13.3198C11.9542 13.4396 12.3704 13.6791 12.7297 14.0384L13.6191 14.928L14.9363 13.6107L14.0468 12.721C13.6875 12.3617 13.4466 11.9468 13.3241 11.4763C13.2043 11.003 13.2029 10.5311 13.3198 10.0606C13.4395 9.58722 13.6804 9.16947 14.0425 8.80733C14.4017 8.44805 14.8179 8.20853 15.2912 8.08877C15.7645 7.969 16.2363 7.97043 16.7067 8.09304C17.1799 8.2128 17.5962 8.45233 17.9554 8.81162C18.3146 9.1709 18.5541 9.58722 18.6738 10.0606C18.7964 10.5311 18.7978 11.003 18.6781 11.4763C18.5612 11.9525 18.3232 12.3703 17.9639 12.7296L17.0787 13.6149L18.3916 14.928L19.2768 14.0427C19.636 13.6834 20.0508 13.4424 20.5212 13.3198C20.9945 13.2 21.4663 13.2014 21.9367 13.3241C22.4099 13.4438 22.8276 13.6848 23.1896 14.0469C23.5489 14.4062 23.7883 14.8225 23.9081 15.2959C24.0306 15.7664 24.0306 16.2369 23.9081 16.7074C23.7883 17.1807 23.5489 17.597 23.1896 17.9563C22.8276 18.3184 22.4099 18.5594 21.9367 18.6792C21.4663 18.7961 20.9945 18.7946 20.5212 18.6749C20.0537 18.5551 19.6403 18.3156 19.2811 17.9563L18.3958 17.0709L17.0787 18.3883L17.9639 19.2737C18.3232 19.633 18.5612 20.0479 18.6781 20.5184C18.7978 20.9917 18.7978 21.465 18.6781 21.9384C18.5583 22.4117 18.3174 22.8295 17.9554 23.1916C17.599 23.548 17.1828 23.7876 16.7067 23.9102C16.2334 24.0299 15.7602 24.0299 15.2869 23.9102C14.8194 23.7904 14.406 23.5509 14.0468 23.1916C13.6847 22.8295 13.4424 22.4132 13.3198 21.9427C13.2001 21.4693 13.2001 20.996 13.3198 20.5226C13.4452 20.0493 13.6861 19.6344 14.0425 19.278L14.9363 18.384L13.6234 17.0709L12.7297 17.9649C12.3733 18.3213 11.9556 18.5594 11.4767 18.6792C11.0034 18.7989 10.5302 18.7989 10.0569 18.6792C9.58653 18.5565 9.17173 18.3156 8.81251 17.9563ZM9.8816 16.887C10.0441 17.0495 10.2323 17.1579 10.4461 17.2121C10.6627 17.2691 10.878 17.2705 11.0918 17.2164C11.3056 17.1622 11.4938 17.0538 11.6563 16.8913L12.55 15.9973L11.6606 15.1077C11.4981 14.9451 11.3085 14.8382 11.0918 14.7869C10.878 14.7327 10.6642 14.7327 10.4504 14.7869C10.2365 14.8411 10.047 14.9509 9.8816 15.1162C9.71909 15.2788 9.60934 15.4655 9.55232 15.6766C9.49815 15.8904 9.49815 16.1043 9.55232 16.3181C9.60934 16.5348 9.71909 16.7245 9.8816 16.887ZM15.1159 11.6517L16.0054 12.5413L16.8905 11.656C17.0559 11.4906 17.1642 11.3024 17.2156 11.0914C17.2698 10.8775 17.2683 10.6622 17.2113 10.4455C17.1571 10.2316 17.0488 10.0435 16.8863 9.88091C16.7238 9.71838 16.5356 9.61003 16.3218 9.55585C16.108 9.50167 15.8942 9.50167 15.6804 9.55585C15.4694 9.60718 15.2812 9.71553 15.1159 9.88091C14.9534 10.0435 14.8422 10.2316 14.7823 10.4455C14.7282 10.6594 14.7282 10.8732 14.7823 11.0871C14.8422 11.301 14.9534 11.4891 15.1159 11.6517ZM19.2145 16.0016L20.0997 16.887C20.2622 17.0495 20.4489 17.1593 20.6599 17.2164C20.8737 17.2705 21.3366 17.2691 21.5475 17.2121C21.7613 17.1579 21.9509 17.0481 22.1163 16.8827C22.2816 16.7173 22.39 16.5291 22.4413 16.3181C22.4983 16.1071 22.4997 15.8947 22.4456 15.6808C22.3914 15.467 22.283 15.2788 22.1205 15.1162C21.9552 14.9509 21.7656 14.8411 21.5518 14.7869C21.338 14.7327 20.8737 14.7327 20.6599 14.7869C20.4518 14.8411 20.265 14.9509 20.0997 15.1162L19.2145 16.0016ZM15.1159 22.1223C15.2784 22.2848 15.4665 22.3932 15.6804 22.4474C15.8942 22.5015 16.1066 22.5001 16.3175 22.4431C16.5313 22.3889 16.7195 22.2806 16.882 22.118C17.0474 21.9527 17.1571 21.763 17.2113 21.5492C17.2683 21.3382 17.2698 21.1257 17.2156 20.9118C17.1642 20.6951 17.0573 20.5055 16.8948 20.343L16.0096 19.4576L15.1159 20.3516C14.9534 20.5141 14.8436 20.7008 14.7866 20.9118C14.7324 21.1257 14.7324 21.3396 14.7866 21.5535C14.8408 21.7673 14.9505 21.9569 15.1159 22.1223ZM14.6925 16.0016L16.0054 17.3147L17.3225 15.9973L16.0096 14.6842L14.6925 16.0016Z" fill="#F1E1D4"/>
</svg>
