<svg width="32" height="32" viewBox="0 0 32 32" fill="none" xmlns="http://www.w3.org/2000/svg">
<path d="M31.5216 19.8705C29.3847 28.442 20.7031 33.6584 12.1306 31.521C3.56168 29.3841 -1.65477 20.702 0.483083 12.1312C2.61906 3.5587 11.3006 -1.65814 19.8705 0.478775C28.4424 2.61569 33.6585 11.2987 31.5214 19.8706L31.5215 19.8705H31.5216Z" fill="white"/>
<path d="M23.9938 7.54757L17.2784 14.263C16.9267 14.6148 16.4656 14.7906 16.0046 14.7906C15.5436 14.7906 15.0826 14.6148 14.7309 14.263L8.0154 7.54757L10.563 5L16.0046 10.4416L21.4463 5L23.9938 7.54757Z" fill="#09090D"/>
<path d="M21.5584 15.9954L27 21.4369L24.4524 23.9846L17.737 17.2691C17.0335 16.5656 17.0335 15.4251 17.737 14.7216L24.4524 8.00609L27 10.5537L21.5584 15.9954Z" fill="#09090D"/>
<path d="M21.4369 27L15.9953 21.5584L10.5536 27L8.00611 24.4524L14.7215 17.737C15.425 17.0336 16.5655 17.0336 17.2691 17.737L23.9845 24.4524L21.4369 27Z" fill="#09090D"/>
<path d="M14.7906 16.0047C14.7906 16.4825 14.6008 16.9407 14.263 17.2785L7.54758 23.9939L5 21.4463L10.4417 16.0046L5 10.5631L7.54758 8.01549L14.263 14.7309C14.6008 15.0687 14.7906 15.5269 14.7906 16.0047Z" fill="#09090D"/>
</svg>
