<svg width="32" height="32" viewBox="0 0 32 32" fill="none" xmlns="http://www.w3.org/2000/svg">
<rect width="32" height="32" rx="16" fill="#480D6E"/>
<path d="M9.19465 10.8762C9.16301 10.8762 9.16301 10.8762 9.16301 10.8762C9.28958 10.8762 9.89079 10.8445 10.0174 11.4774C10.0174 11.5407 10.0174 11.604 10.0174 11.6673C10.0174 12.0786 9.54272 12.5533 9.0048 13.1861C8.84658 13.376 8.65673 13.5975 8.46687 13.819C7.92894 14.5151 7.4543 15.3378 7.35938 16.2871C7.35938 16.2871 7.35938 16.2555 7.39102 16.2555C7.39102 16.2555 7.39102 16.2871 7.35938 16.2871C7.35938 16.382 7.35938 16.477 7.35938 16.5719C7.35938 16.5719 7.35938 16.5719 7.39102 16.5402C7.42266 16.5086 7.54923 16.4453 7.6758 16.382C7.70745 16.382 7.70745 16.3504 7.73909 16.3504C7.77073 16.3504 7.77073 16.3504 7.80237 16.3504C7.99223 16.3187 8.21373 16.3187 8.40359 16.5402C8.49851 16.6352 8.59344 16.825 8.65673 17.0465C8.7833 17.5212 8.7833 18.1857 8.87823 18.9134C8.87823 19.3564 8.94151 19.7362 9.0048 20.1159C9.19465 21.0019 9.54272 21.8879 10.3338 22.6156C10.3338 22.6156 10.3338 22.584 10.3338 22.5524C10.3021 22.3941 10.2072 21.9511 10.492 21.7296C10.5553 21.698 10.6186 21.6664 10.6819 21.6347H10.7135C10.8084 21.6031 10.9034 21.6031 11.0299 21.6031C11.6628 21.6347 12.0741 22.6789 12.8652 23.5333C13.3082 24.0396 13.9094 24.4509 14.7321 24.6408C14.7321 24.6408 14.7005 24.6408 14.7005 24.6091L14.7321 24.6408H14.7638C14.7638 24.5775 14.7005 24.3876 14.7638 24.1978C14.7954 24.0712 14.8587 23.9763 15.0169 23.913H15.0486C15.2068 23.8814 15.3966 23.8814 15.7131 23.9763C16.1877 24.1345 16.694 24.2611 17.2636 24.356C17.4534 24.3244 17.7066 24.3876 17.9281 24.4193C18.1812 24.4193 18.4343 24.4193 18.6875 24.3876C19.2887 24.3244 19.8583 24.1345 20.3962 23.8814C20.3962 23.8814 20.3962 23.8814 20.3645 23.8497C20.3329 23.7864 20.2063 23.6599 20.2063 23.5016C20.2063 23.5016 20.2063 23.3751 20.2696 23.2801C20.3329 23.1536 20.4595 23.0903 20.5544 22.9954C20.7443 22.8688 20.9341 22.7739 21.1556 22.6789C21.3455 22.6156 21.5037 22.5524 21.7252 22.4574C21.7568 22.4258 21.7885 22.4258 21.8201 22.3941C22.1998 22.1726 22.5479 21.8879 22.8643 21.5714L22.896 21.5398C22.9276 21.5082 22.9276 21.5082 22.9592 21.4765C22.9276 21.5082 22.896 21.5398 22.896 21.5398C23.6554 20.7487 24.1617 19.7045 24.4465 18.6287C24.5414 18.2806 24.6363 17.9009 24.6363 17.5845C24.6363 17.4895 24.668 17.3946 24.668 17.2997C24.7312 16.5719 24.7312 15.7808 24.6047 14.8948C24.5097 13.3127 24.0351 12.5849 24.0351 12.5849C23.9718 13.4393 23.8452 14.3885 23.6237 15.4011C23.4339 16.2238 23.244 17.0149 23.0225 17.6794C23.244 17.5844 23.4655 17.4895 23.687 17.3946C23.6554 17.5212 23.6237 17.6794 23.5921 17.9009V17.9325C23.5605 18.0591 23.4972 18.154 23.4339 18.2806C23.3706 18.4072 23.3073 18.5337 23.2757 18.6287C23.2124 18.7236 23.1807 18.8502 23.1175 18.9451C22.9592 19.1982 22.801 19.4197 22.6112 19.6729C22.2631 20.1159 21.8201 20.5272 21.3455 20.8437C20.6177 21.3183 19.795 21.6664 18.9406 21.7929C18.814 21.7929 18.6875 21.8246 18.5609 21.8246C18.4976 21.8246 18.466 21.8246 18.4027 21.8246C15.1751 21.8246 12.5488 19.3564 12.5488 16.3187C12.5488 14.0405 14.0993 11.7938 16.5041 11.4458C16.5041 11.4458 16.5041 11.4774 16.5358 11.4774C16.251 11.7305 15.9978 11.952 15.8713 12.1419C15.7447 12.2685 15.6814 12.3634 15.6814 12.3634L18.4343 12.047C18.466 12.047 18.4976 12.047 18.5293 12.047C20.143 12.047 21.472 12.9646 21.472 12.9646L22.1682 12.2685L22.3897 12.9646C22.3897 12.9646 23.0858 11.6356 23.0858 10.275C23.0858 10.275 22.01 11.161 21.0607 9.51555C20.681 8.4397 14.8903 7.17399 14.5739 4.80078C14.5739 4.80078 13.593 6.98413 15.9029 8.2182L13.593 7.17399C13.593 7.17399 13.7196 7.83848 14.2259 8.4397C14.2259 8.4397 10.9666 8.34477 9.13137 10.9078C9.13137 10.9078 9.13137 10.9078 9.16301 10.9078C9.16301 10.8762 9.16301 10.8762 9.19465 10.8762Z" fill="white"/>
</svg>
