<svg width="32" height="32" viewBox="0 0 32 32" fill="none" xmlns="http://www.w3.org/2000/svg">
<g clip-path="url(#clip0_1077_436)">
<path d="M31.5177 19.8705C29.3808 28.442 20.6992 33.6584 12.1267 31.521C3.55778 29.3841 -1.65868 20.702 0.479176 12.1312C2.61515 3.5587 11.2967 -1.65814 19.8666 0.478775C28.4385 2.61569 33.6546 11.2987 31.5175 19.8706L31.5176 19.8705H31.5177Z" fill="white"/>
<path d="M26.9362 8.24223C26.6919 7.30149 25.9066 6.36074 24.4931 5.3135C23.3586 4.47925 22.1546 4 21.1948 4C21.0028 4 20.8283 4.01775 20.6538 4.05325C20.2175 4.142 19.8335 4.4615 19.5893 4.94074C19.2927 5.50874 19.2228 6.272 19.4148 6.73348C19.4846 6.87548 19.5718 7.05298 19.6766 7.21272C18.7516 7.78073 18.228 7.94048 18.1582 7.95822C20.5666 8.77472 22.5735 10.4787 23.8299 12.6975L23.8474 12.4845C23.8997 11.8987 24.0742 11.2242 24.3186 10.532C24.5628 10.603 24.8072 10.6385 25.0515 10.6385C25.6972 10.6385 26.2556 10.3722 26.6046 9.89297C26.9537 9.41372 27.0932 8.77472 26.9362 8.24223Z" fill="#5E12A0"/>
<path d="M24.4238 10.0177C26.0118 10.4614 26.6575 9.21894 26.448 8.3847C26.2212 7.55044 25.4882 6.69844 24.1968 5.73996C22.9055 4.78146 21.5967 4.39096 20.759 4.56845C19.9214 4.74596 19.6771 6.0417 19.8864 6.53869C19.9737 6.73394 20.1656 7.01794 20.4275 7.33744C20.0959 7.56819 19.7817 7.74568 19.52 7.90543C21.1255 8.63318 22.5216 9.76918 23.5686 11.1892C23.6907 10.7099 23.8653 10.2839 24.0224 9.91118C24.1445 9.92893 24.2841 9.96444 24.4238 10.0177Z" fill="url(#paint0_radial_1077_436)"/>
<path d="M15.3308 27.4135C20.7184 27.4135 25.086 22.9711 25.086 17.4913C25.086 12.0114 20.7184 7.56909 15.3308 7.56909C9.94322 7.56909 5.57568 12.0114 5.57568 17.4913C5.57568 22.9711 9.94322 27.4135 15.3308 27.4135Z" fill="url(#paint1_radial_1077_436)"/>
<path opacity="0.6" d="M25.6453 7.56766C24.3189 6.14768 23.2021 5.77492 21.8583 5.47318C20.8113 5.22468 21.0905 4.62118 22.3645 4.74543C21.7537 4.53243 21.1778 4.47918 20.7589 4.56793C19.9213 4.74543 19.677 6.04117 19.8864 6.53817C19.9736 6.73341 20.1656 7.01742 20.4275 7.33692C19.9562 7.65642 19.5548 7.88716 19.2231 8.06467C19.3803 8.13566 19.5722 8.22441 19.799 8.34866C20.3924 8.66816 21.0381 9.20065 21.0381 9.20065C20.0609 8.34866 20.2703 7.95816 21.614 6.99967C22.0329 6.69793 22.8007 6.73341 23.5163 7.10617C24.2317 7.47891 25.0693 8.41966 25.0693 8.41966L24.2666 9.98166C24.3189 9.9994 24.3713 10.0171 24.4237 10.0349C24.9297 10.1769 25.331 10.1414 25.6453 10.0172C26.0118 9.7864 26.9715 9.00541 25.6453 7.56766Z" fill="#A98698"/>
<path d="M21.8406 6.32622C22.1897 6.46822 22.6434 6.71671 23.2019 7.08947C23.865 7.53322 24.4409 8.03022 24.8074 8.4207C24.1966 9.2372 23.7952 10.3554 23.551 11.1364C23.6732 11.3139 23.8127 11.4914 23.9349 11.6689C24.057 11.2252 24.2663 10.5684 24.5456 9.9117C24.6154 9.92945 24.7028 9.92945 24.7899 9.92945C24.9993 9.92945 25.2436 9.89395 25.4356 9.7342C25.5752 9.6277 25.7324 9.43246 25.7148 9.07746C25.7148 8.74021 25.4531 8.31421 24.912 7.79946C24.5282 7.42672 24.0047 7.01846 23.4812 6.64572C21.9803 5.63398 20.9332 5.34997 20.4621 5.82922C20.1479 6.14873 20.1828 6.53922 20.2875 6.82322C19.7291 7.19597 19.2579 7.46221 18.9438 7.63972C19.1532 7.71072 19.3452 7.79946 19.5546 7.88821C20.113 7.58646 20.9158 7.07171 21.8406 6.32622ZM25.139 8.86446C25.1913 8.9532 25.2088 9.04195 25.2088 9.0952C25.2088 9.25496 25.1565 9.3082 25.1214 9.3437C25.0517 9.39696 24.912 9.43246 24.7899 9.43246C24.8946 9.21946 25.0168 9.04195 25.139 8.86446ZM20.8286 6.21972C20.8809 6.16646 21.0206 6.13097 21.2474 6.16646C21.0729 6.30847 20.8984 6.43272 20.7239 6.55697C20.7064 6.43272 20.7239 6.30847 20.8286 6.21972Z" fill="#5E12A0"/>
<path d="M15.331 6.98401C9.62453 6.98401 5 11.6877 5 17.492C5 23.2961 9.62453 27.9999 15.331 27.9999C21.0375 27.9999 25.6621 23.2961 25.6621 17.492C25.6621 11.6877 21.0201 6.98401 15.331 6.98401ZM15.331 27.4141C9.93866 27.4141 5.57589 22.9767 5.57589 17.492C5.57589 12.0072 9.93866 7.56975 15.331 7.56975C20.7234 7.56975 25.0863 12.0072 25.0863 17.492C25.0863 22.9767 20.7061 27.4141 15.331 27.4141Z" fill="#5E12A0"/>
<path opacity="0.6" d="M15.3308 27.4135C20.7184 27.4135 25.086 22.9711 25.086 17.4913C25.086 12.0114 20.7184 7.56909 15.3308 7.56909C9.94322 7.56909 5.57568 12.0114 5.57568 17.4913C5.57568 22.9711 9.94322 27.4135 15.3308 27.4135Z" fill="url(#paint2_linear_1077_436)"/>
<path opacity="0.6" d="M15.2622 26.2074C9.93964 25.3377 6.32727 20.2434 7.19981 14.8298C7.58375 12.4335 8.77042 10.3923 10.4457 8.91907C8.00258 10.3568 6.18766 12.8595 5.69903 15.9125C4.84393 21.3262 8.4563 26.4204 13.7614 27.2902C16.7281 27.7872 19.5901 26.8464 21.7017 25.0005C19.8344 26.101 17.5658 26.5803 15.2622 26.2074Z" fill="#A98698"/>
<path opacity="0.6" d="M16.8837 7.71084C14.4231 7.30259 12.0323 7.87059 10.0778 9.13084C10.0429 9.16632 10.008 9.20183 10.008 9.20183C10.7584 8.74034 11.8578 8.33208 11.8578 8.33208C9.03076 10.0006 8.1582 11.8998 8.1582 11.8998C9.25763 9.73432 12.4861 8.20784 15.0165 8.10134C17.5468 7.99484 19.2046 8.75808 21.229 10.4088C23.2533 12.0773 24.4749 15.4852 24.3528 18.1833C24.2481 20.8814 22.852 23.0645 22.852 23.0645C23.8118 21.8042 24.3877 20.8814 24.7542 19.9404C24.824 19.6565 24.8938 19.3726 24.9286 19.0708C25.8013 13.6748 22.2063 8.58058 16.8837 7.71084Z" fill="url(#paint3_linear_1077_436)"/>
<path d="M24.5974 17.4027C24.5974 22.6034 20.4439 26.828 15.3309 26.828C10.2177 26.828 6.04688 22.6034 6.04688 17.4027H24.5974Z" fill="url(#paint4_linear_1077_436)"/>
<g opacity="0.6">
<path opacity="0.6" d="M23.8639 17.4027C23.8639 22.4792 19.92 26.6326 14.9639 26.828C15.086 26.828 15.2082 26.828 15.3303 26.828C20.4435 26.828 24.597 22.6034 24.597 17.4027H23.8639Z" fill="url(#paint5_linear_1077_436)"/>
</g>
<g opacity="0.7">
<path opacity="0.7" d="M7.35571 17.4027H6.04688C6.04688 22.6034 10.2002 26.828 15.3134 26.828C15.5403 26.828 15.7497 26.828 15.9591 26.8101C11.1601 26.4551 7.35571 22.3727 7.35571 17.4027Z" fill="url(#paint6_linear_1077_436)"/>
</g>
<path d="M24.58 17.4906C24.58 16.4079 22.7302 15.7865 20.2694 15.5736C18.4895 15.4316 16.6921 15.609 14.6328 16.248C12.8528 16.7806 11.2473 16.6918 10.0781 16.5497C7.47786 16.248 6.04688 16.2125 6.04688 17.4906C6.04688 19.3366 9.7465 21.6441 15.296 20.8452C18.1056 20.4371 19.554 19.6029 21.2119 19.0348C23.0094 18.4313 24.58 18.4491 24.58 17.4906Z" fill="url(#paint7_linear_1077_436)"/>
<path d="M18.3674 13.0182C19.2349 13.0182 19.938 12.303 19.938 11.4207C19.938 10.5385 19.2349 9.82324 18.3674 9.82324C17.5001 9.82324 16.7969 10.5385 16.7969 11.4207C16.7969 12.303 17.5001 13.0182 18.3674 13.0182Z" fill="white"/>
<path d="M20.9331 14.2074C21.2994 14.2074 21.5963 13.9054 21.5963 13.5329C21.5963 13.1604 21.2994 12.8584 20.9331 12.8584C20.5669 12.8584 20.27 13.1604 20.27 13.5329C20.27 13.9054 20.5669 14.2074 20.9331 14.2074Z" fill="white"/>
<g opacity="0.6">
<path opacity="0.6" d="M23.306 10.1444C23.2885 10.1444 23.2711 10.1444 23.2711 10.1444C23.1663 10.1267 23.0966 10.0202 23.114 9.89592C23.2711 9.07942 23.9342 8.29844 23.9691 8.26293C24.0388 8.17419 24.1785 8.17419 24.2483 8.24518C24.3356 8.31618 24.3356 8.45818 24.2657 8.52918C24.2483 8.54693 23.6375 9.27467 23.498 9.98468C23.4805 10.0912 23.3932 10.1444 23.306 10.1444Z" fill="url(#paint8_linear_1077_436)"/>
</g>
<path opacity="0.2" d="M14.6874 24.8918C14.9572 24.8918 15.176 24.6693 15.176 24.3947C15.176 24.1203 14.9572 23.8977 14.6874 23.8977C14.4175 23.8977 14.1987 24.1203 14.1987 24.3947C14.1987 24.6693 14.4175 24.8918 14.6874 24.8918Z" fill="white"/>
<g opacity="0.4">
<path opacity="0.6" d="M14.4057 24.7189C14.2137 24.5236 14.2137 24.2042 14.4057 24.0088C14.4406 23.9733 14.4755 23.9556 14.5104 23.92C14.4406 23.9379 14.3882 23.9733 14.3359 24.0266C14.1439 24.2218 14.1439 24.5414 14.3359 24.7366C14.4929 24.8964 14.7372 24.9319 14.9292 24.8254C14.7547 24.8964 14.5453 24.861 14.4057 24.7189Z" fill="url(#paint9_linear_1077_436)"/>
</g>
<path opacity="0.3" d="M14.8591 24.2535C14.9169 24.2535 14.9638 24.2059 14.9638 24.1471C14.9638 24.0882 14.9169 24.0405 14.8591 24.0405C14.8013 24.0405 14.7544 24.0882 14.7544 24.1471C14.7544 24.2059 14.8013 24.2535 14.8591 24.2535Z" fill="white"/>
<path opacity="0.2" d="M17.2362 24.6442C17.5061 24.6442 17.7248 24.4216 17.7248 24.1471C17.7248 23.8725 17.5061 23.65 17.2362 23.65C16.9663 23.65 16.7476 23.8725 16.7476 24.1471C16.7476 24.4216 16.9663 24.6442 17.2362 24.6442Z" fill="white"/>
<g opacity="0.4">
<path opacity="0.6" d="M16.9545 24.4712C16.7625 24.2758 16.7625 23.9563 16.9545 23.761C16.9893 23.7255 17.0243 23.7078 17.0591 23.6724C16.9893 23.69 16.937 23.7255 16.8846 23.7788C16.6928 23.974 16.6928 24.2936 16.8846 24.4888C17.0418 24.6487 17.286 24.6841 17.478 24.5775C17.3036 24.6487 17.0942 24.6132 16.9545 24.4712Z" fill="url(#paint10_linear_1077_436)"/>
</g>
<path opacity="0.3" d="M17.408 24.0057C17.4658 24.0057 17.5126 23.9581 17.5126 23.8992C17.5126 23.8405 17.4658 23.7927 17.408 23.7927C17.3501 23.7927 17.3032 23.8405 17.3032 23.8992C17.3032 23.9581 17.3501 24.0057 17.408 24.0057Z" fill="white"/>
<path opacity="0.2" d="M15.9758 25.7994C16.1783 25.7994 16.3423 25.6325 16.3423 25.4267C16.3423 25.2208 16.1783 25.0538 15.9758 25.0538C15.7735 25.0538 15.6094 25.2208 15.6094 25.4267C15.6094 25.6325 15.7735 25.7994 15.9758 25.7994Z" fill="white"/>
<g opacity="0.4">
<path opacity="0.6" d="M15.7664 25.6597C15.6268 25.5176 15.6268 25.2692 15.7664 25.1271C15.7839 25.1094 15.8188 25.0917 15.8362 25.0739C15.7839 25.0917 15.749 25.1271 15.7141 25.1627C15.5745 25.3046 15.5745 25.5533 15.7141 25.6952C15.8362 25.8195 16.0108 25.8372 16.1678 25.7485C16.0282 25.8018 15.8711 25.7663 15.7664 25.6597Z" fill="url(#paint11_linear_1077_436)"/>
</g>
<path opacity="0.3" d="M16.0986 25.301C16.1372 25.301 16.1684 25.2692 16.1684 25.2301C16.1684 25.1909 16.1372 25.1589 16.0986 25.1589C16.0601 25.1589 16.0288 25.1909 16.0288 25.2301C16.0288 25.2692 16.0601 25.301 16.0986 25.301Z" fill="white"/>
<path opacity="0.2" d="M18.2277 25.5315C18.4301 25.5315 18.5942 25.3647 18.5942 25.1587C18.5942 24.9528 18.4301 24.786 18.2277 24.786C18.0254 24.786 17.8613 24.9528 17.8613 25.1587C17.8613 25.3647 18.0254 25.5315 18.2277 25.5315Z" fill="white"/>
<g opacity="0.4">
<path opacity="0.6" d="M18.0184 25.3917C17.8788 25.2497 17.8788 25.0011 18.0184 24.8592C18.0358 24.8414 18.0707 24.8237 18.0882 24.8059C18.0358 24.8237 18.0009 24.8592 17.9661 24.8947C17.8264 25.0367 17.8264 25.2852 17.9661 25.4273C18.0882 25.5515 18.2627 25.5692 18.4198 25.4805C18.2802 25.5338 18.123 25.4982 18.0184 25.3917Z" fill="url(#paint12_linear_1077_436)"/>
</g>
<path opacity="0.3" d="M18.3511 25.0351C18.3897 25.0351 18.4209 25.0033 18.4209 24.9641C18.4209 24.9249 18.3897 24.8931 18.3511 24.8931C18.3126 24.8931 18.2812 24.9249 18.2812 24.9641C18.2812 25.0033 18.3126 25.0351 18.3511 25.0351Z" fill="white"/>
<path opacity="0.2" d="M12.6084 24.7161C13.0518 24.7161 13.4112 24.3504 13.4112 23.8996C13.4112 23.4486 13.0518 23.083 12.6084 23.083C12.1651 23.083 11.8057 23.4486 11.8057 23.8996C11.8057 24.3504 12.1651 24.7161 12.6084 24.7161Z" fill="white"/>
<g opacity="0.4">
<path opacity="0.6" d="M12.1548 24.4125C11.8406 24.093 11.8406 23.5782 12.1548 23.2587C12.2071 23.2054 12.2595 23.1699 12.3293 23.1344C12.2246 23.1699 12.1373 23.241 12.05 23.312C11.7359 23.6314 11.7359 24.1462 12.05 24.4657C12.3118 24.732 12.7132 24.7852 13.0273 24.5899C12.7306 24.7142 12.3816 24.6609 12.1548 24.4125Z" fill="url(#paint13_linear_1077_436)"/>
</g>
<path opacity="0.3" d="M12.8884 23.6499C12.9848 23.6499 13.0629 23.5704 13.0629 23.4724C13.0629 23.3744 12.9848 23.2949 12.8884 23.2949C12.792 23.2949 12.7139 23.3744 12.7139 23.4724C12.7139 23.5704 12.792 23.6499 12.8884 23.6499Z" fill="white"/>
<path opacity="0.2" d="M19.7846 22.7096C20.228 22.7096 20.5874 22.3441 20.5874 21.8931C20.5874 21.4422 20.228 21.0767 19.7846 21.0767C19.3413 21.0767 18.9819 21.4422 18.9819 21.8931C18.9819 22.3441 19.3413 22.7096 19.7846 22.7096Z" fill="white"/>
<g opacity="0.4">
<path opacity="0.6" d="M19.309 22.408C18.9948 22.0886 18.9948 21.5739 19.309 21.2543C19.3613 21.201 19.4138 21.1655 19.4836 21.13C19.3787 21.1655 19.2916 21.2366 19.2044 21.3076C18.8902 21.627 18.8902 22.1418 19.2044 22.4613C19.4661 22.7276 19.8675 22.7808 20.1816 22.5855C19.8849 22.7098 19.5532 22.6566 19.309 22.408Z" fill="url(#paint14_linear_1077_436)"/>
</g>
<path opacity="0.3" d="M20.0602 21.6459C20.1567 21.6459 20.2347 21.5663 20.2347 21.4683C20.2347 21.3702 20.1567 21.2908 20.0602 21.2908C19.9639 21.2908 19.8857 21.3702 19.8857 21.4683C19.8857 21.5663 19.9639 21.6459 20.0602 21.6459Z" fill="white"/>
</g>
<defs>
<radialGradient id="paint0_radial_1077_436" cx="0" cy="0" r="1" gradientUnits="userSpaceOnUse" gradientTransform="translate(26.1297 7.26643) scale(7.79965 7.93321)">
<stop stop-color="#FFEAFF" stop-opacity="0.6"/>
<stop offset="0.6807" stop-color="#A087C9"/>
<stop offset="1" stop-color="#10002F"/>
</radialGradient>
<radialGradient id="paint1_radial_1077_436" cx="0" cy="0" r="1" gradientUnits="userSpaceOnUse" gradientTransform="translate(24.0873 15.7292) scale(21.844 23.6299)">
<stop stop-color="#FFEAFF" stop-opacity="0.6"/>
<stop offset="0.6807" stop-color="#A087C9"/>
<stop offset="1" stop-color="#10002F"/>
</radialGradient>
<linearGradient id="paint2_linear_1077_436" x1="13.766" y1="27.2728" x2="16.9912" y2="7.71069" gradientUnits="userSpaceOnUse">
<stop stop-color="#81FFFF"/>
<stop offset="0.6202" stop-color="white" stop-opacity="0"/>
</linearGradient>
<linearGradient id="paint3_linear_1077_436" x1="22.2055" y1="10.7526" x2="14.0139" y2="18.1421" gradientUnits="userSpaceOnUse">
<stop offset="0.2888" stop-color="white"/>
<stop offset="0.7796" stop-color="white" stop-opacity="0"/>
</linearGradient>
<linearGradient id="paint4_linear_1077_436" x1="6.05474" y1="22.1097" x2="24.5929" y2="22.1097" gradientUnits="userSpaceOnUse">
<stop stop-color="#0002E9"/>
<stop offset="0.9952" stop-color="#FF00C7"/>
</linearGradient>
<linearGradient id="paint5_linear_1077_436" x1="25.47" y1="18.2297" x2="15.2182" y2="27.7551" gradientUnits="userSpaceOnUse">
<stop offset="0.2888" stop-color="white"/>
<stop offset="0.7796" stop-color="white" stop-opacity="0"/>
</linearGradient>
<linearGradient id="paint6_linear_1077_436" x1="6.05473" y1="22.1097" x2="15.9725" y2="22.1097" gradientUnits="userSpaceOnUse">
<stop stop-color="#000292"/>
<stop offset="0.9952" stop-color="#7D00C7"/>
</linearGradient>
<linearGradient id="paint7_linear_1077_436" x1="6.06718" y1="18.2736" x2="24.5804" y2="18.2736" gradientUnits="userSpaceOnUse">
<stop stop-color="#000292"/>
<stop offset="0.9952" stop-color="#BE00C7"/>
</linearGradient>
<linearGradient id="paint8_linear_1077_436" x1="24.2767" y1="8.17649" x2="22.913" y2="10.355" gradientUnits="userSpaceOnUse">
<stop offset="0.2888" stop-color="white"/>
<stop offset="0.7796" stop-color="white" stop-opacity="0"/>
</linearGradient>
<linearGradient id="paint9_linear_1077_436" x1="14.1914" y1="24.4146" x2="14.9297" y2="24.4146" gradientUnits="userSpaceOnUse">
<stop offset="0.2888" stop-color="white"/>
<stop offset="0.7796" stop-color="white" stop-opacity="0"/>
</linearGradient>
<linearGradient id="paint10_linear_1077_436" x1="16.7385" y1="24.1634" x2="17.4767" y2="24.1634" gradientUnits="userSpaceOnUse">
<stop offset="0.2888" stop-color="white"/>
<stop offset="0.7796" stop-color="white" stop-opacity="0"/>
</linearGradient>
<linearGradient id="paint11_linear_1077_436" x1="15.5996" y1="25.4325" x2="16.1539" y2="25.4325" gradientUnits="userSpaceOnUse">
<stop offset="0.2888" stop-color="white"/>
<stop offset="0.7796" stop-color="white" stop-opacity="0"/>
</linearGradient>
<linearGradient id="paint12_linear_1077_436" x1="17.8515" y1="25.1645" x2="18.4058" y2="25.1645" gradientUnits="userSpaceOnUse">
<stop offset="0.2888" stop-color="white"/>
<stop offset="0.7796" stop-color="white" stop-opacity="0"/>
</linearGradient>
<linearGradient id="paint13_linear_1077_436" x1="11.8064" y1="23.9186" x2="13.0122" y2="23.9186" gradientUnits="userSpaceOnUse">
<stop offset="0.2888" stop-color="white"/>
<stop offset="0.7796" stop-color="white" stop-opacity="0"/>
</linearGradient>
<linearGradient id="paint14_linear_1077_436" x1="18.9675" y1="21.9135" x2="20.1731" y2="21.9135" gradientUnits="userSpaceOnUse">
<stop offset="0.2888" stop-color="white"/>
<stop offset="0.7796" stop-color="white" stop-opacity="0"/>
</linearGradient>
<clipPath id="clip0_1077_436">
<rect width="32" height="32" fill="white"/>
</clipPath>
</defs>
</svg>
