<svg width="32" height="32" viewBox="0 0 32 32" fill="none" xmlns="http://www.w3.org/2000/svg">
<g clip-path="url(#clip0_1003_1484)">
<path d="M32 16C32 24.8366 24.8366 32 16 32C7.16345 32 0 24.8366 0 16C0 7.16345 7.16345 0 16 0C24.8366 0 32 7.16345 32 16Z" fill="#17438C"/>
<path d="M18.3529 15.9999C18.3529 17.2994 17.2994 18.3529 15.9999 18.3529C14.7004 18.3529 13.647 17.2994 13.647 15.9999C13.647 14.7004 14.7004 13.647 15.9999 13.647C17.2994 13.647 18.3529 14.7004 18.3529 15.9999Z" fill="#3682FF"/>
<path d="M18.3529 10.353C18.3529 11.6524 17.2994 12.7059 15.9999 12.7059C14.7004 12.7059 13.647 11.6524 13.647 10.353C13.647 9.05346 14.7004 8 15.9999 8C17.2994 8 18.3529 9.05346 18.3529 10.353Z" fill="#FFBF60"/>
<path d="M18.3529 21.647C18.3529 22.9465 17.2994 24 15.9999 24C14.7004 24 13.647 22.9465 13.647 21.647C13.647 20.3475 14.7004 19.2941 15.9999 19.2941C17.2994 19.2941 18.3529 20.3475 18.3529 21.647Z" fill="#3682FF"/>
<path d="M10.353 13.647C11.6524 13.647 12.7059 14.7004 12.7059 15.9999C12.7059 17.2994 11.6524 18.3529 10.353 18.3529C9.05346 18.3529 8 17.2994 8 15.9999C8 14.7004 9.05346 13.647 10.353 13.647Z" fill="#3682FF"/>
<path d="M10.353 19.2941C11.6524 19.2941 12.7059 20.3475 12.7059 21.647C12.7059 22.9465 11.6524 24 10.353 24C9.05346 24 8 22.9465 8 21.647C8 20.3475 9.05346 19.2941 10.353 19.2941Z" fill="#3682FF"/>
<path d="M21.6474 13.647C22.9469 13.647 24.0003 14.7004 24.0003 15.9999C24.0003 17.2994 22.9469 18.3529 21.6474 18.3529C20.3479 18.3529 19.2944 17.2994 19.2944 15.9999C19.2944 14.7004 20.3479 13.647 21.6474 13.647Z" fill="#3682FF"/>
<path d="M21.6474 19.2941C22.9469 19.2941 24.0003 20.3475 24.0003 21.647C24.0003 22.9465 22.9469 24 21.6474 24C20.3479 24 19.2944 22.9465 19.2944 21.647C19.2944 20.3475 20.3479 19.2941 21.6474 19.2941Z" fill="#3682FF"/>
<path d="M21.6474 8C22.9469 8 24.0003 9.05346 24.0003 10.353C24.0003 11.6524 22.9469 12.7059 21.6474 12.7059C20.3479 12.7059 19.2944 11.6524 19.2944 10.353C19.2944 9.05346 20.3479 8 21.6474 8Z" fill="#FFBF60"/>
<path fill-rule="evenodd" clip-rule="evenodd" d="M20.1173 11.0589H16.5879V9.64709H20.1173V11.0589Z" fill="#FFBF60"/>
<path fill-rule="evenodd" clip-rule="evenodd" d="M15.2941 11.0589H11.7646V9.64709H15.2941V11.0589Z" fill="#FFBF60"/>
<path d="M10.353 8C11.6524 8 12.7059 9.05346 12.7059 10.353C12.7059 11.6524 11.6524 12.7059 10.353 12.7059C9.05346 12.7059 8 11.6524 8 10.353C8 9.05346 9.05346 8 10.353 8Z" fill="#FFBF60"/>
</g>
<defs>
<clipPath id="clip0_1003_1484">
<rect width="32" height="32" fill="white"/>
</clipPath>
</defs>
</svg>
