<svg width="32" height="32" viewBox="0 0 32 32" fill="none" xmlns="http://www.w3.org/2000/svg">
<path d="M32 16C32 24.8366 24.8366 32 16 32C7.16345 32 0 24.8366 0 16C0 7.16345 7.16345 0 16 0C24.8366 0 32 7.16345 32 16Z" fill="#151A20"/>
<path d="M20.8172 16.3387C19.9024 15.5212 18.7047 14.9752 17.544 14.4463L17.5355 14.4435C15.4887 13.5087 13.7191 12.6997 13.8449 10.7872C13.8992 10.0582 14.4281 9.61802 14.8626 9.38074C15.3514 9.11203 16.0003 8.95196 16.6007 8.95196C16.6721 8.95196 16.7436 8.95482 16.8122 8.95768C18.5588 9.07486 19.9367 9.81527 21.2832 11.3532L21.3632 11.4476L21.4576 11.3675L21.9836 10.9101L22.0779 10.8273L21.995 10.7329C20.4942 9.01198 18.8647 8.14581 16.8723 8.01144C16.7865 8.00286 16.695 8 16.5949 8C16.5349 8 16.4692 8 16.4005 8.00286H16.3148C15.0084 8.00286 13.5762 8.43167 12.487 9.15207C11.1864 10.0125 10.4574 11.196 10.4374 12.4853C10.3859 15.6212 12.9502 16.6761 15.2114 17.6109L15.2171 17.6137L15.2399 17.6223C17.241 18.4513 18.9676 19.166 18.9305 21.0813C18.9133 22.3448 17.1066 23.0423 15.866 23.0423H15.8145H15.6916V23.0452C13.842 22.9909 12.1897 22.1933 10.7804 20.6811L10.6947 20.5896L10.6032 20.6725L10.0915 21.1471L10 21.2328L10.0858 21.3243C11.6866 23.0481 13.6619 23.9743 15.8002 24H15.8974C17.2782 24 18.779 23.6284 19.911 23.0023C21.3289 22.2276 22.1551 21.0985 22.2408 19.8235C22.338 18.4227 21.8721 17.2821 20.8172 16.3387ZM14.1794 13.6116C14.9941 14.3091 16.0975 14.8094 17.1638 15.2925L17.1838 15.3011C18.313 15.8214 19.3822 16.313 20.1569 16.9963C21.0144 17.7509 21.3775 18.6257 21.3003 19.7492C21.2289 20.8612 20.4027 21.6044 19.6509 22.0532C19.7967 21.7559 19.8767 21.4329 19.8853 21.0899C19.9024 19.935 19.4593 19.0116 18.5274 18.2627C17.7127 17.608 16.6321 17.1649 15.5858 16.7332C13.4104 15.8385 11.355 14.9923 11.3922 12.4939C11.4036 11.5333 11.981 10.6243 13.0188 9.93534C13.053 9.91247 13.0874 9.88959 13.1245 9.86671C13.0016 10.1355 12.933 10.4156 12.9158 10.71C12.8329 11.8678 13.2475 12.8169 14.1794 13.6116Z" fill="white"/>
</svg>
