<svg width="32" height="32" viewBox="0 0 32 32" fill="none" xmlns="http://www.w3.org/2000/svg">
<g id="Group 1597880054">
<circle id="Ellipse 1814" cx="16" cy="16" r="16" fill="white"/>
<path id="Vector" fill-rule="evenodd" clip-rule="evenodd" d="M15.9578 32C20.6565 32 24.8834 29.9853 27.8173 26.7748L27.0367 25.9155C26.0705 24.8521 24.4236 24.7612 23.3451 25.7118L21.6798 27.1798C19.4142 29.1769 15.9707 29.0509 13.8586 26.8937L12.8174 25.8302C11.8174 24.8089 10.1789 24.7734 9.13511 25.7503L6.08077 28.6087C8.80373 30.7335 12.2325 32 15.9578 32ZM29.2935 23.8872L29.6727 24.3045C31.1494 21.8836 32 19.041 32 16C32 12.3127 30.7494 8.91673 28.6481 6.21098C28.2575 6.31084 27.8842 6.50195 27.5618 6.78615L25.8966 8.25408C23.6311 10.2512 20.1875 10.1253 18.0754 7.96815L17.0342 6.90462C16.0342 5.88334 14.3958 5.84774 13.3519 6.82461L9.06722 10.8345L6.98277 8.63122L11.2674 4.62136C13.5199 2.51336 17.0556 2.59019 19.2133 4.79402L20.2546 5.85755C21.2335 6.8572 22.8291 6.91553 23.8791 5.99005L25.5443 4.52212C25.8239 4.27576 26.121 4.06183 26.4313 3.88004C23.6208 1.4621 19.9605 0 15.9578 0C7.9101 0 1.24646 5.9104 0.0924619 13.6165C2.28849 12.3557 5.13987 12.6853 6.98439 14.5692L8.18863 15.7991C9.12466 16.7552 10.6346 16.856 11.6907 16.033L15.2606 13.2515C17.4032 11.5819 20.4365 11.6627 22.4862 13.4438L27.3471 17.6678L25.3459 19.9459L20.4849 15.7221C19.5351 14.8966 18.1294 14.8592 17.1365 15.633L13.5666 18.4146C11.2876 20.1904 8.02928 19.9727 6.00943 17.9098L4.8052 16.6799C3.80525 15.6586 2.16679 15.6229 1.12296 16.5998L0 17.6507C0.347286 21.0302 1.74917 24.0981 3.87202 26.5218L7.05067 23.547C9.30315 21.439 12.8388 21.5158 14.9965 23.7197L16.0379 24.7832C17.0166 25.7828 18.6124 25.8412 19.6623 24.9158L21.3276 23.4478C23.6547 21.3964 27.2088 21.5925 29.2935 23.8872Z" fill="url(#paint0_linear_329_4344)"/>
</g>
<defs>
<linearGradient id="paint0_linear_329_4344" x1="16" y1="2.38322e-07" x2="22.2906" y2="32.0001" gradientUnits="userSpaceOnUse">
<stop stop-color="#780000"/>
<stop offset="1" stop-color="#C1121F"/>
</linearGradient>
</defs>
</svg>
