<svg width="32" height="32" viewBox="0 0 32 32" fill="none" xmlns="http://www.w3.org/2000/svg">
<path d="M15.9997 28.2632C22.976 28.2632 28.6313 22.6078 28.6313 15.6316C28.6313 8.65535 22.976 3 15.9997 3C9.02352 3 3.36816 8.65535 3.36816 15.6316C3.36816 22.6078 9.02352 28.2632 15.9997 28.2632Z" fill="#2E3148"/>
<path d="M15.9701 22.7802C20.0008 22.7802 23.2684 19.5127 23.2684 15.482C23.2684 11.4513 20.0008 8.18372 15.9701 8.18372C11.9394 8.18372 8.67188 11.4513 8.67188 15.482C8.67188 19.5127 11.9394 22.7802 15.9701 22.7802Z" fill="#1B1E36"/>
<path d="M32 15.6317C32 17.7329 31.5862 19.8134 30.782 21.7547C29.9781 23.6959 28.7994 25.4597 27.3137 26.9454C25.828 28.4312 24.0641 29.6098 22.1229 30.4137C20.1817 31.218 18.1011 31.6317 16 31.6317C13.8989 31.6317 11.8183 31.218 9.87705 30.4137C7.93586 29.6098 6.17204 28.4312 4.68629 26.9454C3.20056 25.4597 2.02201 23.6959 1.21793 21.7547C0.413852 19.8134 0 17.7329 0 15.6317H3.83481C3.83481 17.2293 4.14945 18.8112 4.76081 20.2871C5.37218 21.7631 6.26827 23.1042 7.39789 24.2338C8.52755 25.3634 9.86863 26.2595 11.3446 26.8709C12.8205 27.4823 14.4024 27.797 16 27.797C17.5976 27.797 19.1795 27.4823 20.6554 26.8709C22.1314 26.2595 23.4724 25.3634 24.6021 24.2338C25.7317 23.1042 26.6278 21.7631 27.2393 20.2871C27.8507 18.8112 28.1653 17.2293 28.1653 15.6317H32Z" fill="#C73238"/>
<path d="M28.6313 15.6317C28.6313 17.2905 28.3046 18.9331 27.6699 20.4656C27.035 21.9981 26.1046 23.3906 24.9316 24.5636C23.7587 25.7365 22.3662 26.667 20.8337 27.3018C19.3011 27.9366 17.6586 28.2633 15.9997 28.2633C14.3409 28.2633 12.6984 27.9366 11.1658 27.3018C9.63332 26.667 8.24081 25.7365 7.06787 24.5636C5.89493 23.3906 4.96449 21.9981 4.32968 20.4656C3.6949 18.9331 3.36816 17.2905 3.36816 15.6317H15.9997H28.6313Z" fill="#070B09"/>
<path d="M15.7444 4.57629C14.4112 4.57629 13.3301 9.41192 13.3301 15.377C13.3301 21.3421 14.4112 26.1777 15.7444 26.1777C17.0777 26.1777 18.1588 21.3421 18.1588 15.377C18.1588 9.41192 17.0777 4.57629 15.7444 4.57629ZM15.9111 25.5682C15.7587 25.7715 15.6062 25.6189 15.6062 25.6189C14.9922 24.9075 14.6852 23.5859 14.6852 23.5859C13.6112 20.1297 13.8668 12.709 13.8668 12.709C14.3715 6.81775 15.2897 5.42603 15.6021 5.11707C15.6341 5.08554 15.676 5.06626 15.7208 5.06267C15.7655 5.05904 15.81 5.07131 15.8466 5.0973C16.2999 5.41854 16.6802 6.76192 16.6802 6.76192C17.8029 10.9297 17.7013 14.8434 17.7013 14.8434C17.8029 18.2487 17.1386 22.0607 17.1386 22.0607C16.6273 24.9577 15.9111 25.5682 15.9111 25.5682Z" fill="white"/>
<path d="M25.1118 10.0018C24.4481 8.84498 19.7161 10.3138 14.5395 13.2822C9.3629 16.2506 5.71137 19.5949 6.37467 20.7512C7.03796 21.9075 11.7704 20.4392 16.947 17.4708C22.1236 14.5025 25.7751 11.1582 25.1118 10.0018ZM6.98707 20.5925C6.73295 20.5605 6.79036 20.3516 6.79036 20.3516C7.10208 19.4652 8.0941 18.5412 8.0941 18.5412C10.5587 15.8896 17.123 12.4186 17.123 12.4186C22.4837 9.92453 24.1488 10.0298 24.5712 10.1461C24.6145 10.1582 24.6522 10.1852 24.6775 10.2224C24.7028 10.2597 24.7142 10.3046 24.7095 10.3494C24.6587 10.9027 23.6802 11.9007 23.6802 11.9007C20.6259 14.9498 17.1804 16.8095 17.1804 16.8095C14.2771 18.593 10.6401 19.9129 10.6401 19.9129C7.87257 20.9102 6.98707 20.5925 6.98707 20.5925Z" fill="white"/>
<path d="M25.0887 20.7889C25.7576 19.6351 22.1153 16.2755 16.9569 13.2849C11.7986 10.2943 7.06722 8.80722 6.3989 9.96295C5.73058 11.1187 9.37229 14.4763 14.5336 17.4669C19.695 20.4576 24.4203 21.9447 25.0887 20.7889ZM6.84216 10.4088C6.74335 10.1745 6.95194 10.1181 6.95194 10.1181C7.87536 9.9437 9.17249 10.3411 9.17249 10.3411C12.7014 11.1447 18.9938 15.0862 18.9938 15.0862C23.8386 18.4763 24.5816 19.9696 24.6929 20.3935C24.7043 20.4369 24.6999 20.483 24.6805 20.5236C24.6612 20.5641 24.6281 20.5965 24.5872 20.6151C24.082 20.8464 22.729 20.5017 22.729 20.5017C18.5587 19.3836 15.2235 17.3348 15.2235 17.3348C12.2268 15.7186 9.2636 13.2316 9.2636 13.2316C7.01201 11.3359 6.84286 10.4113 6.84286 10.4113L6.84216 10.4088Z" fill="white"/>
<path d="M15.7179 16.62C16.4197 16.62 16.9886 16.0511 16.9886 15.3494C16.9886 14.6476 16.4197 14.0787 15.7179 14.0787C15.0161 14.0787 14.4473 14.6476 14.4473 15.3494C14.4473 16.0511 15.0161 16.62 15.7179 16.62Z" fill="white"/>
<path d="M20.9293 11.2337C21.3363 11.2337 21.6662 10.8923 21.6662 10.4712C21.6662 10.0502 21.3363 9.70886 20.9293 9.70886C20.5223 9.70886 20.1924 10.0502 20.1924 10.4712C20.1924 10.8923 20.5223 11.2337 20.9293 11.2337Z" fill="white"/>
<path d="M8.83128 13.8252C9.23832 13.8252 9.56829 13.4839 9.56829 13.0628C9.56829 12.6417 9.23832 12.3004 8.83128 12.3004C8.42423 12.3004 8.09424 12.6417 8.09424 13.0628C8.09424 13.4839 8.42423 13.8252 8.83128 13.8252Z" fill="white"/>
<path d="M14.2195 23.1773C14.6265 23.1773 14.9565 22.8359 14.9565 22.4149C14.9565 21.9938 14.6265 21.6525 14.2195 21.6525C13.8124 21.6525 13.4824 21.9938 13.4824 22.4149C13.4824 22.8359 13.8124 23.1773 14.2195 23.1773Z" fill="white"/>
</svg>
