<svg width="32" height="32" viewBox="0 0 32 32" fill="none" xmlns="http://www.w3.org/2000/svg">
<g clip-path="url(#clip0_1002_1441)">
<mask id="mask0_1002_1441" style="mask-type:alpha" maskUnits="userSpaceOnUse" x="0" y="0" width="32" height="32">
<path d="M16 32C24.8365 32 32 24.8365 32 16C32 7.16346 24.8365 0 16 0C7.16346 0 0 7.16346 0 16C0 24.8365 7.16346 32 16 32Z" fill="#D9D9D9"/>
</mask>
<g mask="url(#mask0_1002_1441)">
<path d="M32 0H0V32H32V0Z" fill="#E50571"/>
<path fill-rule="evenodd" clip-rule="evenodd" d="M22.779 7.42806C23.9073 8.2477 24.5342 8.98402 24.7292 9.72028C24.8545 10.137 24.7431 10.6372 24.4646 11.0123C24.1859 11.3874 23.7402 11.5957 23.2248 11.5957C23.0298 11.5957 22.8205 11.5659 22.6257 11.5104C22.6847 11.3525 22.7499 11.1892 22.8206 11.0259C22.8764 11.0398 22.9461 11.0398 23.0157 11.0398C23.1827 11.0398 23.3778 11.012 23.5312 10.887C23.6424 10.8037 23.768 10.6508 23.7541 10.373C23.7541 10.109 23.545 9.77558 23.1132 9.3727C22.8069 9.08098 22.3889 8.76143 21.9711 8.46972C20.773 7.67785 19.9373 7.45558 19.5612 7.83068C19.3105 8.08073 19.3383 8.38639 19.4219 8.60866C19.2474 8.72284 19.0837 8.82422 18.9338 8.91369C18.5727 8.3725 18.5541 7.71977 18.8648 7.13634C19.0598 6.76124 19.3663 6.51119 19.7145 6.44169C19.8538 6.41391 19.993 6.40002 20.1464 6.40002C20.9125 6.40002 21.8736 6.77513 22.779 7.42806ZM18.8314 9.45007C19.2771 9.21391 19.9233 8.8031 20.6616 8.21967C20.9402 8.33078 21.3024 8.52527 21.7482 8.81705C22.2775 9.16431 22.7371 9.5533 23.0297 9.85897C22.5429 10.4969 22.2227 11.3703 22.0277 11.9813C23.084 13.363 23.7121 15.0876 23.7121 16.9582C23.7121 21.501 20.0209 25.1825 15.4661 25.1825C10.9111 25.1825 7.21973 21.501 7.21973 16.9582C7.21973 12.4154 10.9111 8.73391 15.4661 8.73391C16.662 8.73391 17.8002 8.98934 18.8279 9.4486L18.8314 9.45007ZM15.4661 24.7241C11.1617 24.7241 7.67937 21.251 7.67937 16.9582C7.67937 12.6655 11.1617 9.19234 15.4661 9.19234C19.7702 9.19234 23.2526 12.6655 23.2526 16.9582C23.2526 21.251 19.7562 24.7241 15.4661 24.7241ZM23.35 10.3868C23.35 10.3452 23.3361 10.2757 23.2944 10.2063C23.1968 10.3452 23.0993 10.4841 23.0157 10.6508C23.1132 10.6508 23.2247 10.6231 23.2803 10.5813C23.3082 10.5536 23.35 10.5119 23.35 10.3868ZM20.1881 8.09462C20.007 8.06684 19.8955 8.09462 19.8538 8.13628C19.7702 8.20578 19.7562 8.303 19.7702 8.40022C19.9095 8.303 20.0487 8.20578 20.1881 8.09462ZM19.4079 15.4578C21.372 15.6243 22.8624 16.0409 22.8624 16.8883C22.8624 20.9587 19.5472 24.2652 15.4659 24.2652C11.4222 24.2652 8.11694 21.0195 8.05621 17.0009C8.05563 16.9866 8.05531 16.9724 8.05531 16.9581C8.05531 16.9511 8.05537 16.9442 8.0555 16.9372C8.05537 16.9209 8.05537 16.9047 8.05537 16.8883H8.05729C8.11035 15.9593 9.24706 15.9913 11.273 16.2218C12.2064 16.333 13.4879 16.4024 14.9087 15.9857C16.5523 15.4855 17.9871 15.3465 19.4079 15.4578ZM15.0691 16.5226L15.0664 16.5234C13.5418 16.9706 12.1746 16.8934 11.2083 16.7785C10.1515 16.6583 9.42945 16.6057 8.97576 16.6794C8.75637 16.7152 8.67771 16.7697 8.65499 16.7915L8.65429 16.7922C8.64731 16.7986 8.61576 16.8274 8.61576 16.9581C8.61576 17.1264 8.70504 17.3788 8.99144 17.6789C9.27329 17.9744 9.71201 18.2773 10.3064 18.5321C11.4921 19.0405 13.2325 19.329 15.3593 19.0289C16.9377 18.8039 17.9171 18.4211 18.8741 18.0472C19.236 17.9057 19.5947 17.7655 19.9815 17.6355L19.9832 17.635L19.9848 17.6344C20.3661 17.5089 20.7317 17.4169 21.0544 17.3393C21.1123 17.3253 21.1686 17.3119 21.2229 17.299L21.2273 17.2978L21.2286 17.2976C21.4819 17.2371 21.6946 17.1864 21.8798 17.1303C22.1119 17.0599 22.2278 17.001 22.2809 16.9587C22.2835 16.9566 22.2859 16.9546 22.2879 16.9529C22.2844 16.8995 22.2248 16.7026 21.6549 16.4722C21.116 16.2545 20.3203 16.0977 19.3623 16.0163C18.0144 15.9111 16.6503 16.0415 15.0718 16.5218L15.0691 16.5226ZM17.8897 13.4574C18.5822 13.4574 19.1432 12.8976 19.1432 12.2071C19.1432 11.5166 18.5822 10.9568 17.8897 10.9568C17.1974 10.9568 16.636 11.5166 16.636 12.2071C16.636 12.8976 17.1974 13.4574 17.8897 13.4574ZM20.4666 13.8608C20.4666 14.1523 20.2296 14.3888 19.9373 14.3888C19.6449 14.3888 19.408 14.1523 19.408 13.8608C19.408 13.5693 19.6449 13.3329 19.9373 13.3329C20.2296 13.3329 20.4666 13.5693 20.4666 13.8608Z" fill="white"/>
</g>
</g>
<defs>
<clipPath id="clip0_1002_1441">
<rect width="32" height="32" fill="white"/>
</clipPath>
</defs>
</svg>
