<svg width="32" height="32" viewBox="0 0 32 32" fill="none" xmlns="http://www.w3.org/2000/svg">
<rect width="32" height="32" rx="16" fill="#7B2BF9"/>
<path d="M27.7257 13.5007C27.2555 11.2464 26.1388 9.1816 24.4735 7.51538C22.2073 5.24803 19.1967 4 15.9902 4C12.7837 4 9.77306 5.24149 7.50694 7.50885C6.95184 8.06425 6.46857 8.65886 6.04408 9.28614C5.92 9.45603 5.80245 9.63245 5.70449 9.82194C4.59429 11.6711 4 13.7816 4 15.9967C4 19.205 5.24735 22.2173 7.51347 24.4846C9.77959 26.752 12.7902 28 15.9967 28C19.2033 28 22.2139 26.752 24.48 24.4846C25.5445 23.4195 26.3935 22.1781 26.9878 20.8386C27.0596 20.6948 27.1184 20.538 27.1771 20.3812C27.7192 19.009 28 17.5257 28 16.0033C28 15.1996 27.9216 14.4351 27.7649 13.664C27.7584 13.6248 27.7322 13.5268 27.7257 13.5007ZM23.5657 8.01851C23.631 8.08386 23.7029 8.1492 23.7747 8.22107C24.8327 9.27961 25.6555 10.5211 26.1975 11.8671C26.2498 11.9978 26.1388 12.1481 25.9886 12.122C25.6751 12.0632 25.3159 12.0436 24.9241 12.0501C24.6498 12.0566 24.4082 11.8606 24.3624 11.5992C24.1469 10.397 23.8335 9.29268 23.4416 8.32562C23.422 8.27335 23.3959 8.22107 23.3763 8.15573C23.3241 8.03158 23.4743 7.9205 23.5657 8.01851ZM24.7086 15.0558C24.7086 14.9317 24.8653 14.8729 24.9437 14.9774C25.0286 15.1016 25.12 15.2322 25.2049 15.3564C25.3159 15.5263 25.4204 15.6962 25.5118 15.866C25.5706 15.9706 25.5575 16.1013 25.4792 16.1928C25.3551 16.33 25.2114 16.4803 25.0612 16.6305C25.009 16.6828 24.9502 16.7416 24.8914 16.8004C24.8196 16.8658 24.6955 16.8135 24.702 16.722C24.7086 16.5391 24.7151 16.3626 24.7151 16.1732C24.7216 15.7876 24.7216 15.4217 24.7086 15.0558ZM9.60326 7.03185C11.458 5.70542 13.6653 4.99319 15.9902 4.99319C16.6041 4.99319 17.2114 5.04547 17.8057 5.13695C17.9624 5.16308 18.0212 5.36564 17.8906 5.46365C17.3159 5.91451 16.7869 6.581 16.3102 7.44351C16.1992 7.65913 15.951 7.75715 15.7159 7.6918C14.1486 7.25402 12.6073 7.04492 11.1837 7.09066C10.6547 7.11026 10.1649 7.16254 9.69469 7.24748C9.56408 7.28015 9.49877 7.11026 9.60326 7.03185ZM8.03592 23.4784C7.80082 23.0471 8.10122 22.0343 9.62286 20.4922C9.77959 20.3354 9.76653 20.0741 9.5902 19.9303C9.53143 19.8846 9.47265 19.8388 9.40735 19.7866C9.25714 19.6689 9.0351 19.6755 8.89796 19.8127C8.86531 19.8454 8.84571 19.865 8.83918 19.8715C8.08163 20.6491 7.54612 21.3744 7.25224 22.0278C7.16735 22.2173 6.91265 22.2369 6.80163 22.0604C5.61959 20.2831 4.98612 18.1922 4.98612 16.0033C4.98612 15.2257 5.06449 14.4481 5.22775 13.7032C5.25388 13.5922 5.41061 13.5856 5.4498 13.6967C5.67837 14.4481 6.05061 15.2322 6.56 16.0163C7.25224 17.0749 8.16 18.0942 9.24408 19.0351C9.6098 19.3553 10.0016 19.6624 10.4131 19.963C11.2424 20.5707 12.1306 21.1261 13.0841 21.6161C13.502 21.8383 13.92 22.0408 14.338 22.2369C14.5731 22.3414 14.8408 22.3479 15.0759 22.2565C15.2784 22.1781 15.4743 22.0996 15.6767 22.0147C15.8988 21.9232 16.0163 21.688 15.9576 21.4528C15.951 21.4266 15.9445 21.4005 15.9445 21.3874C15.6114 19.9956 15.4286 18.4209 15.4024 16.7808C15.4024 16.7612 15.4024 16.3888 15.4024 16.0033C15.4024 15.6178 15.4155 15.4413 15.4286 15.1604C15.5265 13.174 15.8661 11.3117 16.4016 9.737C16.4473 9.59325 16.3755 9.43643 16.2253 9.38415C16.0882 9.33842 15.9445 9.29268 15.8008 9.24694C15.6637 9.2012 15.5069 9.27961 15.4547 9.42336C14.8735 11.1288 14.5143 13.1478 14.4229 15.2845C14.4098 15.5589 14.2661 15.8072 14.031 15.9445C12.7641 16.6959 11.6082 17.4931 10.5959 18.2902C10.3869 18.4601 10.0865 18.447 9.88408 18.2772C8.87837 17.4016 8.02939 16.4541 7.38939 15.4675C6.12898 13.5334 5.82857 11.7169 6.54694 10.3381L6.55347 10.3316C6.6449 10.1813 6.74286 10.031 6.84082 9.88729C7.66367 8.80261 9.19184 8.1688 11.2229 8.09692C11.3469 8.09039 11.4841 8.09039 11.6082 8.09039C12.8555 8.09039 14.1878 8.29948 15.5461 8.69153C15.5722 8.69807 15.7682 8.75687 15.8073 8.76994C16.1535 8.88102 16.7412 9.08358 16.8196 9.10972C16.8522 9.12279 17.0351 9.19466 17.0612 9.2012C17.7273 9.46256 18.3869 9.7566 19.04 10.0964C20.3069 10.7563 21.4629 11.5274 22.4816 12.3768C20.5551 12.8146 18.3151 13.6706 16.062 14.814C15.9576 14.8663 15.8857 14.9709 15.8792 15.0885C15.8727 15.2257 15.8596 15.5067 15.8531 15.7354C15.8465 15.8726 15.9967 15.9706 16.1208 15.9053C18.3543 14.7291 20.5812 13.8601 22.4947 13.3896C22.8539 13.3047 23.0824 12.9649 23.0367 12.599C23.0041 12.3441 22.9649 12.0893 22.9192 11.8475C22.8669 11.5404 22.6906 11.2595 22.449 11.0765C21.5543 10.397 20.5682 9.76967 19.5102 9.21427C18.7984 8.84182 18.08 8.52164 17.3486 8.24068C17.1984 8.18187 17.1265 7.99891 17.2114 7.85516C17.9559 6.52219 18.8441 5.77729 19.7127 5.77729C19.7192 5.77729 19.7322 5.77729 19.7388 5.77729C20.7576 5.7969 21.7698 6.85543 22.5273 8.69153C22.9061 9.61938 23.2 10.691 23.409 11.8541C23.4678 12.1808 23.5135 12.514 23.5527 12.8538C23.5722 13.0302 23.6049 13.2981 23.6245 13.4157C23.7094 14.2978 23.742 15.2192 23.729 16.1536C23.7159 16.7482 23.6898 17.3362 23.6376 17.9047C22.2727 19.0025 20.5878 20.1067 18.7331 21.0868C18.2302 21.3482 17.7273 21.603 17.231 21.8383C17.1265 21.8906 16.6955 22.08 16.6694 22.0931C16.1992 22.3087 15.7355 22.4982 15.2718 22.6812C15.2457 22.6943 14.7233 22.8903 14.6906 22.9033C14.6514 22.9164 14.3837 23.0144 14.351 23.0275C13.3518 23.3803 12.3918 23.6482 11.5167 23.8181C9.30286 24.2429 8.26449 23.9161 8.03592 23.4784ZM11.0465 19.205C12.0131 18.4209 13.1494 17.6237 14.3967 16.8788C14.4229 18.4732 14.5992 20.0087 14.9127 21.3874C14.4555 21.1849 13.9918 20.9758 13.5347 20.734C12.6465 20.2766 11.8106 19.7604 11.0465 19.205ZM17.4073 26.9153C16.9437 26.9741 16.4669 27.0068 15.9902 27.0068C13.8482 27.0068 11.8041 26.3991 10.0539 25.2687C9.93633 25.1903 9.98857 25.0008 10.1257 24.9943C10.1518 24.9943 10.1845 24.9943 10.2041 24.9877C10.6482 24.9616 11.138 24.8963 11.6669 24.7917C12.7902 24.5696 14.0441 24.2036 15.3567 23.7005C15.4743 23.6548 15.6049 23.7136 15.6571 23.8312C16.1665 25.0727 16.7869 26.0071 17.4988 26.6017C17.6229 26.7062 17.5641 26.8957 17.4073 26.9153ZM22.0637 23.975C21.28 25.5236 20.3135 26.3861 19.3731 26.3665C18.3543 26.3469 17.342 25.2883 16.5845 23.4522C16.5388 23.3411 16.591 23.2039 16.702 23.1516C16.7086 23.1451 16.7151 23.1451 16.7282 23.1386C16.7739 23.119 16.8327 23.1124 16.8849 23.1255C18.289 23.5176 19.68 23.7267 20.9796 23.7267C21.1167 23.7267 21.2604 23.7267 21.3975 23.7201C21.5543 23.7136 21.7176 23.7071 21.8743 23.694C22.0245 23.694 22.129 23.8443 22.0637 23.975ZM22.4033 22.642C22.0767 22.6877 21.7306 22.7204 21.3714 22.7335C20.4898 22.7661 19.5559 22.6877 18.6024 22.5113C18.4849 22.4917 18.4653 22.3283 18.5698 22.2761C18.7788 22.1715 18.9878 22.0604 19.1967 21.9494C20.6596 21.1718 22.031 20.3224 23.2261 19.4533C23.311 19.388 23.4416 19.4664 23.422 19.5709C23.2522 20.5707 23.0302 21.5116 22.7363 22.361C22.6775 22.5178 22.5535 22.6224 22.4033 22.642ZM24.0294 23.5176C23.951 23.6025 23.8596 23.694 23.7747 23.7789C23.631 23.9227 23.4678 24.073 23.3176 24.2102C23.2196 24.2951 23.0694 24.1906 23.1216 24.073C23.1347 24.0403 23.1543 24.0076 23.1673 23.9684C23.2327 23.8247 23.2914 23.6744 23.3633 23.5241C23.3763 23.4914 23.409 23.4653 23.4416 23.4522C23.5918 23.413 23.7486 23.3673 23.8922 23.3215C24.0229 23.2823 24.1143 23.4326 24.0294 23.5176ZM26.2367 20.0283C26.191 20.1394 26.1518 20.2505 26.0996 20.3616C26.0865 20.3812 26.0212 20.5184 26.0147 20.538C25.649 21.211 25.0482 21.7403 24.2645 22.1127C24.0816 22.1977 23.8857 22.0343 23.938 21.8383C24.2122 20.8712 24.4082 19.8258 24.5453 18.7215C24.5714 18.5124 24.6694 18.3294 24.8261 18.1922C25.1592 17.9047 25.4727 17.6107 25.76 17.3232C25.8971 17.186 26.1388 17.2448 26.1975 17.4343C26.4784 18.3817 26.498 19.2638 26.2367 20.0283ZM26.4588 14.8729C26.3804 15.0166 26.1649 15.0231 26.0735 14.8859C26.0604 14.8663 26.0473 14.8402 26.0343 14.8206C25.7078 14.3109 25.329 13.8209 24.911 13.3373C24.8065 13.2197 24.8914 13.0368 25.0482 13.0302H25.0547C26.0408 13.0302 26.5567 13.2785 26.7135 13.5726C26.8376 13.8209 26.7984 14.2586 26.4588 14.8729ZM26.9943 16.3234C26.9943 16.3953 26.8898 16.4149 26.8637 16.3496C26.8506 16.3234 26.8376 16.2908 26.8245 16.2646C26.7984 16.2124 26.8049 16.147 26.8441 16.0947C26.8506 16.0882 26.8637 16.0686 26.8833 16.0425C26.929 15.9837 27.0008 15.9902 27.0008 16.0555C26.9943 16.147 26.9943 16.232 26.9943 16.3234Z" fill="white"/>
</svg>
